# xmcd
#
# Track frame offsets: 
#        150
#        11109
#        22890
#        35818
#        46075
#        55787
#        68620
#        79919
#        91724
#        104217
#        118500
#        132254
#        143339
#        156300
#        170098
#        182929
#        193946
#        206051
#        217635
#        228908
#
# Disc length: 3222 seconds
#
# Revision: 0
# Processed by: cddbd v1.5.2PL0 Copyright (c) Steve Scherf et al.
# Submitted via: ExactAudioCopyFreeDBPlugin 1.0
#
DISCID=130c9414
DTITLE=Various Artist - Rock 'n' Roll:  The Early Years
DYEAR=2003
DGENRE=Rhythm and Blues
TTITLE0=Ella Mae Morse - Rock Me All Night Long
TTITLE1=Ella Mae Morse - Money Honey
TTITLE2=Ella Mae Morse - Forty Cups of Coffee
TTITLE3=Ella Mae Morse - Have Mercy Baby
TTITLE4=Big Joe Turner - Goin' Away Blues
TTITLE5=Big Joe Turner - Roll 'em Pete
TTITLE6=Big Joe Turner - Howlin' Winds
TTITLE7=Big Joe Turner - Kansas City Blues
TTITLE8=Dinah Washington - Evil Gal Blues
TTITLE9=Dinah Washington - I Know How to Do It
TTITLE10=Dinah Washington - Salty Papa Blues
TTITLE11=Dinah Washington - Fat Daddy
TTITLE12=Eddie "Cleanhead" Vinson - Cherry Red Blues
TTITLE13=Eddie "Cleanhead" Vinson - Kidney Stew Blues
TTITLE14=Eddie "Cleanhead" Vinson - Old Maid Boogie
TTITLE15=Eddie "Cleanhead" Vinson - Some Women Do
TTITLE16=Roy Byrd - Her Mind is Gone
TTITLE17=Roy Byrd - Bald Head
TTITLE18=Roy Byrd - Oh Well
TTITLE19=Roy Byrd - Byrd's Blues
EXTD=
EXTT0=Ella Mae Morse
EXTT1=Ella Mae Morse
EXTT2=Ella Mae Morse
EXTT3=Ella Mae Morse
EXTT4=Ella Mae Morse
EXTT5=
EXTT6=Big Joe Turner
EXTT7=Big Joe Turner
EXTT8=
EXTT9=
EXTT10=Dinah Washington
EXTT11=Dinah Washington
EXTT12=
EXTT13=
EXTT14=Ediie "Cleanhead" Vinson
EXTT15=Eddie "Cleanhead" Vinson
EXTT16=Roy Byrd
EXTT17=Roy Byrd
EXTT18=Roy Byrd
EXTT19=Roy Byrd
PLAYORDER=
